# xmcd
#
# Track frame offsets: 
#        150
#        14384
#        27734
#        41178
#        55475
#        68854
#        82190
#        95512
#        109325
#        121523
#        134933
#        149269
#        163484
#        177342
#        190029
#        204061
#        217764
#        229227
#        243307
#        258799
#        271788
#        284662
#
# Disc length: 3971 seconds
#
# Revision: 0
# Processed by: cddbd v1.5.2PL0 Copyright (c) Steve Scherf et al.
# Submitted via: ExactAudioCopy v0.99pb5
#
DISCID=4f0f8116
DTITLE=Charley Patton - The Rough Guide to Charley Patton
DYEAR=2012
DGENRE=Blues
TTITLE0=Mississippi Boweavil Blues 
TTITLE1=Down The Dirt Road Blues 
TTITLE2=Pony Blues 
TTITLE3=A Spoonful Blues 
TTITLE4=High Water Everywhere (Part 1) 
TTITLE5=High Water Everywhere (Part 2) 
TTITLE6=34 Blues 
TTITLE7=Pea Vine Blues 
TTITLE8=Revenue Man Blues 
TTITLE9=Poor Me 
TTITLE10=High Sheriff Blues 
TTITLE11=Frankie and Albert 
TTITLE12=Prayer of Death (Part 1) 
TTITLE13=Prayer of Death (Part 2) 
TTITLE14=Shake It And Break It (But Don't Let It Fall Mama) 
TTITLE15=Magnolia Blues 
TTITLE16=Circle Round The Moon
TTITLE17=Screamin And Hollerin The Blues 
TTITLE18=Mean Black Moan 
TTITLE19=Jesus Is A Dying Bed Maker 
TTITLE20=Oh Death 
TTITLE21=Heart Like Railroad Steel 
EXTD=
EXTT0=
EXTT1=
EXTT2=
EXTT3=
EXTT4=
EXTT5=
EXTT6=
EXTT7=
EXTT8=
EXTT9=
EXTT10=
EXTT11=
EXTT12=
EXTT13=
EXTT14=
EXTT15=
EXTT16=
EXTT17=
EXTT18=
EXTT19=
EXTT20=
EXTT21=
PLAYORDER=
